# Blender v2.79 (sub 0) OBJ File: ''
# www.blender.org
mtllib forest_floor.mtl
o forest_floor
v -22.000000 0.999997 20.000000
v -22.000000 0.000003 -20.000000
v -22.000000 -0.000003 20.000000
v -22.000000 1.000003 -20.000000
v 20.000000 -0.000003 20.000000
v 20.000000 0.000003 -20.000000
v 20.000000 0.999997 20.000000
v 20.000000 1.000003 -20.000000
v 20.000000 -0.000003 20.000000
v -22.000000 0.999997 20.000000
v -22.000000 -0.000003 20.000000
v 20.000000 0.999997 20.000000
v -22.000000 0.000003 -20.000000
v -22.000000 1.000003 -20.000000
v 20.000000 0.000003 -20.000000
v 20.000000 1.000003 -20.000000
v -21.000000 -0.000003 19.000000
v 20.000000 -0.000003 20.000000
v -22.000000 -0.000003 20.000000
v 19.000000 -0.000003 19.000000
v -21.000000 0.000003 -19.000000
v 19.000000 0.000003 -19.000000
v -22.000000 0.000003 -20.000000
v 20.000000 0.000003 -20.000000
v -22.000000 0.999997 20.000000
v 20.000000 0.999997 20.000000
v -21.000000 0.999997 19.000000
v 19.000000 0.999997 19.000000
v -21.000000 1.000003 -19.000000
v 19.000000 1.000003 -19.000000
v -22.000000 1.000003 -20.000000
v 20.000000 1.000003 -20.000000
vt 0.512065 0.974991
vt 0.524247 0.487691
vt 0.524247 0.974991
vt 0.512065 0.487691
vt 0.524509 0.974996
vt 0.524509 0.487691
vt 0.536691 0.974996
vt 0.536691 0.487691
vt 0.511775 0.975240
vt 0.000131 0.987424
vt 0.000131 0.975241
vt 0.511775 0.987423
vt 0.000131 0.999868
vt 0.000131 0.987686
vt 0.511783 0.999869
vt 0.511783 0.987686
vt 0.012319 0.475248
vt 0.511799 0.487429
vt 0.000138 0.487429
vt 0.499617 0.475247
vt 0.012313 0.012323
vt 0.499612 0.012314
vt 0.000131 0.000142
vt 0.511794 0.000131
vt 0.000131 0.487692
vt 0.511802 0.487691
vt 0.012313 0.499873
vt 0.499620 0.499873
vt 0.012314 0.962797
vt 0.499618 0.962797
vt 0.000133 0.974978
vt 0.511800 0.974978
vn -1.0000 0.0000 0.0000
vn 1.0000 0.0000 0.0000
vn 0.0000 0.0000 1.0000
vn 0.0000 0.0000 -1.0000
vn 0.0000 -1.0000 -0.0000
vn -0.0000 1.0000 0.0000
usemtl palette
s 1
f 1/1/1 2/2/1 3/3/1
f 4/4/1 2/2/1 1/1/1
f 5/5/2 6/6/2 7/7/2
f 7/7/2 6/6/2 8/8/2
f 9/9/3 10/10/3 11/11/3
f 12/12/3 10/10/3 9/9/3
f 13/13/4 14/14/4 15/15/4
f 15/15/4 14/14/4 16/16/4
f 17/17/5 18/18/5 19/19/5
f 20/20/5 18/18/5 17/17/5
f 21/21/5 17/17/5 19/19/5
f 21/21/5 20/20/5 17/17/5
f 22/22/5 18/18/5 20/20/5
f 22/22/5 20/20/5 21/21/5
f 23/23/5 21/21/5 19/19/5
f 23/23/5 22/22/5 21/21/5
f 24/24/5 18/18/5 22/22/5
f 24/24/5 22/22/5 23/23/5
f 25/25/6 26/26/6 27/27/6
f 27/27/6 26/26/6 28/28/6
f 25/25/6 27/27/6 29/29/6
f 27/27/6 28/28/6 29/29/6
f 28/28/6 26/26/6 30/30/6
f 29/29/6 28/28/6 30/30/6
f 25/25/6 29/29/6 31/31/6
f 29/29/6 30/30/6 31/31/6
f 30/30/6 26/26/6 32/32/6
f 31/31/6 30/30/6 32/32/6
