# MagicaVoxel @ Ephtracy

# group
g bomb8

# material
mtllib bomb8.mtl
usemtl palette

# normals
vn -1 0 0
vn 1 0 0
vn 0 0 1
vn 0 0 -1
vn 0 -1 0
vn 0 1 0

# texcoords
vt 0.916016 0.5
vt 0.955078 0.5

# verts
v 2 1 9
v 2 1 6
v 2 2 10
v 2 2 9
v 2 2 6
v 2 2 5
v 2 4 10
v 2 4 9
v 2 4 6
v 2 4 5
v 2 5 9
v 2 5 6
v 3 0 9
v 3 0 6
v 3 1 10
v 3 1 9
v 3 1 6
v 3 1 5
v 3 2 11
v 3 2 10
v 3 2 9
v 3 2 6
v 3 2 5
v 3 2 4
v 3 4 11
v 3 4 10
v 3 4 9
v 3 4 6
v 3 4 5
v 3 4 4
v 3 5 10
v 3 5 9
v 3 5 6
v 3 5 5
v 3 6 9
v 3 6 6
v 4 0 10
v 4 0 9
v 4 0 6
v 4 0 5
v 4 1 11
v 4 1 10
v 4 1 9
v 4 1 6
v 4 1 5
v 4 1 4
v 4 2 11
v 4 2 10
v 4 2 5
v 4 2 4
v 4 4 11
v 4 4 10
v 4 4 5
v 4 4 4
v 4 5 11
v 4 5 10
v 4 5 9
v 4 5 6
v 4 5 5
v 4 5 4
v 4 6 10
v 4 6 9
v 4 6 8
v 4 6 7
v 4 6 6
v 4 6 5
v 4 7 8
v 4 7 7
v 5 6 9
v 5 6 8
v 5 6 7
v 5 6 6
v 5 7 9
v 5 7 8
v 5 7 7
v 5 7 6
v 5 8 8
v 5 8 7
v 6 6 9
v 6 6 8
v 6 6 7
v 6 6 6
v 6 7 9
v 6 7 8
v 6 7 7
v 6 7 6
v 6 8 8
v 6 8 7
v 7 0 10
v 7 0 9
v 7 0 6
v 7 0 5
v 7 1 11
v 7 1 10
v 7 1 9
v 7 1 6
v 7 1 5
v 7 1 4
v 7 2 11
v 7 2 10
v 7 2 5
v 7 2 4
v 7 4 11
v 7 4 10
v 7 4 5
v 7 4 4
v 7 5 11
v 7 5 10
v 7 5 9
v 7 5 6
v 7 5 5
v 7 5 4
v 7 6 10
v 7 6 9
v 7 6 8
v 7 6 7
v 7 6 6
v 7 6 5
v 7 7 8
v 7 7 7
v 8 0 9
v 8 0 6
v 8 1 10
v 8 1 9
v 8 1 6
v 8 1 5
v 8 2 11
v 8 2 10
v 8 2 9
v 8 2 6
v 8 2 5
v 8 2 4
v 8 4 11
v 8 4 10
v 8 4 9
v 8 4 6
v 8 4 5
v 8 4 4
v 8 5 10
v 8 5 9
v 8 5 6
v 8 5 5
v 8 6 9
v 8 6 6
v 9 1 9
v 9 1 6
v 9 2 10
v 9 2 9
v 9 2 6
v 9 2 5
v 9 4 10
v 9 4 9
v 9 4 6
v 9 4 5
v 9 5 9
v 9 5 6
v 3 2 11
v 3 4 11
v 4 1 11
v 4 2 11
v 4 4 11
v 4 5 11
v 7 1 11
v 7 2 11
v 7 4 11
v 7 5 11
v 8 2 11
v 8 4 11
v 2 2 10
v 2 4 10
v 3 1 10
v 3 2 10
v 3 4 10
v 3 5 10
v 4 0 10
v 4 1 10
v 4 2 10
v 4 4 10
v 4 5 10
v 4 6 10
v 7 0 10
v 7 1 10
v 7 2 10
v 7 4 10
v 7 5 10
v 7 6 10
v 8 1 10
v 8 2 10
v 8 4 10
v 8 5 10
v 9 2 10
v 9 4 10
v 2 1 9
v 2 2 9
v 2 4 9
v 2 5 9
v 3 0 9
v 3 1 9
v 3 2 9
v 3 4 9
v 3 5 9
v 3 6 9
v 4 0 9
v 4 1 9
v 4 5 9
v 4 6 9
v 5 6 9
v 5 7 9
v 6 6 9
v 6 7 9
v 7 0 9
v 7 1 9
v 7 5 9
v 7 6 9
v 8 0 9
v 8 1 9
v 8 2 9
v 8 4 9
v 8 5 9
v 8 6 9
v 9 1 9
v 9 2 9
v 9 4 9
v 9 5 9
v 4 6 8
v 4 7 8
v 5 6 8
v 5 7 8
v 5 8 8
v 6 6 8
v 6 7 8
v 6 8 8
v 7 6 8
v 7 7 8
v 4 6 7
v 4 7 7
v 5 6 7
v 5 7 7
v 5 8 7
v 6 6 7
v 6 7 7
v 6 8 7
v 7 6 7
v 7 7 7
v 2 1 6
v 2 2 6
v 2 4 6
v 2 5 6
v 3 0 6
v 3 1 6
v 3 2 6
v 3 4 6
v 3 5 6
v 3 6 6
v 4 0 6
v 4 1 6
v 4 5 6
v 4 6 6
v 5 6 6
v 5 7 6
v 6 6 6
v 6 7 6
v 7 0 6
v 7 1 6
v 7 5 6
v 7 6 6
v 8 0 6
v 8 1 6
v 8 2 6
v 8 4 6
v 8 5 6
v 8 6 6
v 9 1 6
v 9 2 6
v 9 4 6
v 9 5 6
v 2 2 5
v 2 4 5
v 3 1 5
v 3 2 5
v 3 4 5
v 3 5 5
v 4 0 5
v 4 1 5
v 4 2 5
v 4 4 5
v 4 5 5
v 4 6 5
v 7 0 5
v 7 1 5
v 7 2 5
v 7 4 5
v 7 5 5
v 7 6 5
v 8 1 5
v 8 2 5
v 8 4 5
v 8 5 5
v 9 2 5
v 9 4 5
v 3 2 4
v 3 4 4
v 4 1 4
v 4 2 4
v 4 4 4
v 4 5 4
v 7 1 4
v 7 2 4
v 7 4 4
v 7 5 4
v 8 2 4
v 8 4 4
v 4 0 10
v 7 0 10
v 3 0 9
v 4 0 9
v 7 0 9
v 8 0 9
v 3 0 6
v 4 0 6
v 7 0 6
v 8 0 6
v 4 0 5
v 7 0 5
v 4 1 11
v 7 1 11
v 3 1 10
v 4 1 10
v 7 1 10
v 8 1 10
v 2 1 9
v 3 1 9
v 4 1 9
v 7 1 9
v 8 1 9
v 9 1 9
v 2 1 6
v 3 1 6
v 4 1 6
v 7 1 6
v 8 1 6
v 9 1 6
v 3 1 5
v 4 1 5
v 7 1 5
v 8 1 5
v 4 1 4
v 7 1 4
v 3 2 11
v 4 2 11
v 7 2 11
v 8 2 11
v 2 2 10
v 3 2 10
v 4 2 10
v 7 2 10
v 8 2 10
v 9 2 10
v 2 2 9
v 3 2 9
v 8 2 9
v 9 2 9
v 2 2 6
v 3 2 6
v 8 2 6
v 9 2 6
v 2 2 5
v 3 2 5
v 4 2 5
v 7 2 5
v 8 2 5
v 9 2 5
v 3 2 4
v 4 2 4
v 7 2 4
v 8 2 4
v 3 4 11
v 4 4 11
v 7 4 11
v 8 4 11
v 2 4 10
v 3 4 10
v 4 4 10
v 7 4 10
v 8 4 10
v 9 4 10
v 2 4 9
v 3 4 9
v 8 4 9
v 9 4 9
v 2 4 6
v 3 4 6
v 8 4 6
v 9 4 6
v 2 4 5
v 3 4 5
v 4 4 5
v 7 4 5
v 8 4 5
v 9 4 5
v 3 4 4
v 4 4 4
v 7 4 4
v 8 4 4
v 4 5 11
v 7 5 11
v 3 5 10
v 4 5 10
v 7 5 10
v 8 5 10
v 2 5 9
v 3 5 9
v 4 5 9
v 7 5 9
v 8 5 9
v 9 5 9
v 2 5 6
v 3 5 6
v 4 5 6
v 7 5 6
v 8 5 6
v 9 5 6
v 3 5 5
v 4 5 5
v 7 5 5
v 8 5 5
v 4 5 4
v 7 5 4
v 4 6 10
v 7 6 10
v 3 6 9
v 4 6 9
v 5 6 9
v 6 6 9
v 7 6 9
v 8 6 9
v 4 6 8
v 5 6 8
v 6 6 8
v 7 6 8
v 4 6 7
v 5 6 7
v 6 6 7
v 7 6 7
v 3 6 6
v 4 6 6
v 5 6 6
v 6 6 6
v 7 6 6
v 8 6 6
v 4 6 5
v 7 6 5
v 5 7 9
v 6 7 9
v 4 7 8
v 5 7 8
v 6 7 8
v 7 7 8
v 4 7 7
v 5 7 7
v 6 7 7
v 7 7 7
v 5 7 6
v 6 7 6
v 5 8 8
v 6 8 8
v 5 8 7
v 6 8 7

# faces
f 4/2/1 2/2/1 1/2/1
f 5/2/1 2/2/1 4/2/1
f 7/2/1 4/2/1 3/2/1
f 7/2/1 6/2/1 5/2/1
f 7/2/1 5/2/1 4/2/1
f 8/2/1 6/2/1 7/2/1
f 9/2/1 6/2/1 8/2/1
f 10/2/1 6/2/1 9/2/1
f 11/2/1 9/2/1 8/2/1
f 12/2/1 9/2/1 11/2/1
f 16/2/1 14/2/1 13/2/1
f 17/2/1 14/2/1 16/2/1
f 20/2/1 16/2/1 15/2/1
f 21/2/1 16/2/1 20/2/1
f 22/2/1 18/2/1 17/2/1
f 23/2/1 18/2/1 22/2/1
f 25/2/1 20/2/1 19/2/1
f 26/2/1 20/2/1 25/2/1
f 29/2/1 24/2/1 23/2/1
f 30/2/1 24/2/1 29/2/1
f 31/2/1 27/2/1 26/2/1
f 32/2/1 27/2/1 31/2/1
f 33/2/1 29/2/1 28/2/1
f 34/2/1 29/2/1 33/2/1
f 35/2/1 33/2/1 32/2/1
f 36/2/1 33/2/1 35/2/1
f 42/2/1 38/2/1 37/2/1
f 43/2/1 38/2/1 42/2/1
f 44/2/1 40/2/1 39/2/1
f 45/2/1 40/2/1 44/2/1
f 47/2/1 42/2/1 41/2/1
f 48/2/1 42/2/1 47/2/1
f 49/2/1 46/2/1 45/2/1
f 50/2/1 46/2/1 49/2/1
f 55/2/1 52/2/1 51/2/1
f 56/2/1 52/2/1 55/2/1
f 59/2/1 54/2/1 53/2/1
f 60/2/1 54/2/1 59/2/1
f 61/2/1 57/2/1 56/2/1
f 62/2/1 57/2/1 61/2/1
f 65/2/1 59/2/1 58/2/1
f 66/2/1 59/2/1 65/2/1
f 67/2/1 64/2/1 63/2/1
f 68/2/1 64/2/1 67/2/1
f 73/2/1 70/2/1 69/2/1
f 74/2/1 70/2/1 73/2/1
f 75/2/1 72/2/1 71/2/1
f 76/2/1 72/2/1 75/2/1
f 77/1/1 75/1/1 74/1/1
f 78/1/1 75/1/1 77/1/1
f 79/2/2 80/2/2 83/2/2
f 83/2/2 80/2/2 84/2/2
f 81/2/2 82/2/2 85/2/2
f 85/2/2 82/2/2 86/2/2
f 84/1/2 85/1/2 87/1/2
f 87/1/2 85/1/2 88/1/2
f 89/2/2 90/2/2 94/2/2
f 94/2/2 90/2/2 95/2/2
f 91/2/2 92/2/2 96/2/2
f 96/2/2 92/2/2 97/2/2
f 93/2/2 94/2/2 99/2/2
f 99/2/2 94/2/2 100/2/2
f 97/2/2 98/2/2 101/2/2
f 101/2/2 98/2/2 102/2/2
f 103/2/2 104/2/2 107/2/2
f 107/2/2 104/2/2 108/2/2
f 105/2/2 106/2/2 111/2/2
f 111/2/2 106/2/2 112/2/2
f 108/2/2 109/2/2 113/2/2
f 113/2/2 109/2/2 114/2/2
f 110/2/2 111/2/2 117/2/2
f 117/2/2 111/2/2 118/2/2
f 115/2/2 116/2/2 119/2/2
f 119/2/2 116/2/2 120/2/2
f 121/2/2 122/2/2 124/2/2
f 124/2/2 122/2/2 125/2/2
f 123/2/2 124/2/2 128/2/2
f 128/2/2 124/2/2 129/2/2
f 125/2/2 126/2/2 130/2/2
f 130/2/2 126/2/2 131/2/2
f 127/2/2 128/2/2 133/2/2
f 133/2/2 128/2/2 134/2/2
f 131/2/2 132/2/2 137/2/2
f 137/2/2 132/2/2 138/2/2
f 134/2/2 135/2/2 139/2/2
f 139/2/2 135/2/2 140/2/2
f 136/2/2 137/2/2 141/2/2
f 141/2/2 137/2/2 142/2/2
f 140/2/2 141/2/2 143/2/2
f 143/2/2 141/2/2 144/2/2
f 145/2/2 146/2/2 148/2/2
f 148/2/2 146/2/2 149/2/2
f 147/2/2 148/2/2 151/2/2
f 149/2/2 150/2/2 151/2/2
f 148/2/2 149/2/2 151/2/2
f 151/2/2 150/2/2 152/2/2
f 152/2/2 150/2/2 153/2/2
f 153/2/2 150/2/2 154/2/2
f 152/2/2 153/2/2 155/2/2
f 155/2/2 153/2/2 156/2/2
f 160/2/3 158/2/3 157/2/3
f 161/2/3 158/2/3 160/2/3
f 163/2/3 160/2/3 159/2/3
f 163/2/3 162/2/3 161/2/3
f 163/2/3 161/2/3 160/2/3
f 164/2/3 162/2/3 163/2/3
f 165/2/3 162/2/3 164/2/3
f 166/2/3 162/2/3 165/2/3
f 167/2/3 165/2/3 164/2/3
f 168/2/3 165/2/3 167/2/3
f 172/2/3 170/2/3 169/2/3
f 173/2/3 170/2/3 172/2/3
f 176/2/3 172/2/3 171/2/3
f 177/2/3 172/2/3 176/2/3
f 178/2/3 174/2/3 173/2/3
f 179/2/3 174/2/3 178/2/3
f 181/2/3 176/2/3 175/2/3
f 182/2/3 176/2/3 181/2/3
f 185/2/3 180/2/3 179/2/3
f 186/2/3 180/2/3 185/2/3
f 187/2/3 183/2/3 182/2/3
f 188/2/3 183/2/3 187/2/3
f 189/2/3 185/2/3 184/2/3
f 190/2/3 185/2/3 189/2/3
f 191/2/3 189/2/3 188/2/3
f 192/2/3 189/2/3 191/2/3
f 198/2/3 194/2/3 193/2/3
f 199/2/3 194/2/3 198/2/3
f 200/2/3 196/2/3 195/2/3
f 201/2/3 196/2/3 200/2/3
f 203/2/3 198/2/3 197/2/3
f 204/2/3 198/2/3 203/2/3
f 205/2/3 202/2/3 201/2/3
f 206/2/3 202/2/3 205/2/3
f 209/2/3 208/2/3 207/2/3
f 210/2/3 208/2/3 209/2/3
f 215/2/3 212/2/3 211/2/3
f 216/2/3 212/2/3 215/2/3
f 219/2/3 214/2/3 213/2/3
f 220/2/3 214/2/3 219/2/3
f 221/2/3 217/2/3 216/2/3
f 222/2/3 217/2/3 221/2/3
f 223/2/3 219/2/3 218/2/3
f 224/2/3 219/2/3 223/2/3
f 227/2/3 226/2/3 225/2/3
f 228/2/3 226/2/3 227/2/3
f 231/1/3 229/1/3 228/1/3
f 232/1/3 229/1/3 231/1/3
f 233/2/3 231/2/3 230/2/3
f 234/2/3 231/2/3 233/2/3
f 235/2/4 236/2/4 237/2/4
f 237/2/4 236/2/4 238/2/4
f 238/1/4 239/1/4 241/1/4
f 241/1/4 239/1/4 242/1/4
f 240/2/4 241/2/4 243/2/4
f 243/2/4 241/2/4 244/2/4
f 245/2/4 246/2/4 250/2/4
f 250/2/4 246/2/4 251/2/4
f 247/2/4 248/2/4 252/2/4
f 252/2/4 248/2/4 253/2/4
f 249/2/4 250/2/4 255/2/4
f 255/2/4 250/2/4 256/2/4
f 253/2/4 254/2/4 257/2/4
f 257/2/4 254/2/4 258/2/4
f 259/2/4 260/2/4 261/2/4
f 261/2/4 260/2/4 262/2/4
f 263/2/4 264/2/4 267/2/4
f 267/2/4 264/2/4 268/2/4
f 265/2/4 266/2/4 271/2/4
f 271/2/4 266/2/4 272/2/4
f 268/2/4 269/2/4 273/2/4
f 273/2/4 269/2/4 274/2/4
f 270/2/4 271/2/4 275/2/4
f 275/2/4 271/2/4 276/2/4
f 277/2/4 278/2/4 280/2/4
f 280/2/4 278/2/4 281/2/4
f 279/2/4 280/2/4 284/2/4
f 284/2/4 280/2/4 285/2/4
f 281/2/4 282/2/4 286/2/4
f 286/2/4 282/2/4 287/2/4
f 283/2/4 284/2/4 289/2/4
f 289/2/4 284/2/4 290/2/4
f 287/2/4 288/2/4 293/2/4
f 293/2/4 288/2/4 294/2/4
f 290/2/4 291/2/4 295/2/4
f 295/2/4 291/2/4 296/2/4
f 292/2/4 293/2/4 297/2/4
f 297/2/4 293/2/4 298/2/4
f 296/2/4 297/2/4 299/2/4
f 299/2/4 297/2/4 300/2/4
f 301/2/4 302/2/4 304/2/4
f 304/2/4 302/2/4 305/2/4
f 303/2/4 304/2/4 307/2/4
f 305/2/4 306/2/4 307/2/4
f 304/2/4 305/2/4 307/2/4
f 307/2/4 306/2/4 308/2/4
f 308/2/4 306/2/4 309/2/4
f 309/2/4 306/2/4 310/2/4
f 308/2/4 309/2/4 311/2/4
f 311/2/4 309/2/4 312/2/4
f 316/2/5 314/2/5 313/2/5
f 317/2/5 314/2/5 316/2/5
f 319/2/5 316/2/5 315/2/5
f 319/2/5 318/2/5 317/2/5
f 319/2/5 317/2/5 316/2/5
f 320/2/5 318/2/5 319/2/5
f 321/2/5 318/2/5 320/2/5
f 322/2/5 318/2/5 321/2/5
f 323/2/5 321/2/5 320/2/5
f 324/2/5 321/2/5 323/2/5
f 328/2/5 326/2/5 325/2/5
f 329/2/5 326/2/5 328/2/5
f 332/2/5 328/2/5 327/2/5
f 333/2/5 328/2/5 332/2/5
f 334/2/5 330/2/5 329/2/5
f 335/2/5 330/2/5 334/2/5
f 337/2/5 332/2/5 331/2/5
f 338/2/5 332/2/5 337/2/5
f 341/2/5 336/2/5 335/2/5
f 342/2/5 336/2/5 341/2/5
f 343/2/5 339/2/5 338/2/5
f 344/2/5 339/2/5 343/2/5
f 345/2/5 341/2/5 340/2/5
f 346/2/5 341/2/5 345/2/5
f 347/2/5 345/2/5 344/2/5
f 348/2/5 345/2/5 347/2/5
f 354/2/5 350/2/5 349/2/5
f 355/2/5 350/2/5 354/2/5
f 356/2/5 352/2/5 351/2/5
f 357/2/5 352/2/5 356/2/5
f 359/2/5 354/2/5 353/2/5
f 360/2/5 354/2/5 359/2/5
f 361/2/5 358/2/5 357/2/5
f 362/2/5 358/2/5 361/2/5
f 367/2/5 364/2/5 363/2/5
f 368/2/5 364/2/5 367/2/5
f 371/2/5 366/2/5 365/2/5
f 372/2/5 366/2/5 371/2/5
f 373/2/5 369/2/5 368/2/5
f 374/2/5 369/2/5 373/2/5
f 375/2/5 371/2/5 370/2/5
f 376/2/5 371/2/5 375/2/5
f 377/2/6 378/2/6 382/2/6
f 382/2/6 378/2/6 383/2/6
f 379/2/6 380/2/6 384/2/6
f 384/2/6 380/2/6 385/2/6
f 381/2/6 382/2/6 387/2/6
f 387/2/6 382/2/6 388/2/6
f 385/2/6 386/2/6 389/2/6
f 389/2/6 386/2/6 390/2/6
f 391/2/6 392/2/6 395/2/6
f 395/2/6 392/2/6 396/2/6
f 393/2/6 394/2/6 399/2/6
f 399/2/6 394/2/6 400/2/6
f 396/2/6 397/2/6 401/2/6
f 401/2/6 397/2/6 402/2/6
f 398/2/6 399/2/6 403/2/6
f 403/2/6 399/2/6 404/2/6
f 405/2/6 406/2/6 408/2/6
f 408/2/6 406/2/6 409/2/6
f 407/2/6 408/2/6 412/2/6
f 412/2/6 408/2/6 413/2/6
f 409/2/6 410/2/6 414/2/6
f 414/2/6 410/2/6 415/2/6
f 411/2/6 412/2/6 417/2/6
f 417/2/6 412/2/6 418/2/6
f 415/2/6 416/2/6 421/2/6
f 421/2/6 416/2/6 422/2/6
f 418/2/6 419/2/6 423/2/6
f 423/2/6 419/2/6 424/2/6
f 420/2/6 421/2/6 425/2/6
f 425/2/6 421/2/6 426/2/6
f 424/2/6 425/2/6 427/2/6
f 427/2/6 425/2/6 428/2/6
f 429/2/6 430/2/6 432/2/6
f 432/2/6 430/2/6 433/2/6
f 433/2/6 430/2/6 434/2/6
f 434/2/6 430/2/6 435/2/6
f 431/2/6 432/2/6 437/2/6
f 432/2/6 433/2/6 437/2/6
f 437/2/6 433/2/6 438/2/6
f 435/2/6 436/2/6 439/2/6
f 434/2/6 435/2/6 439/2/6
f 439/2/6 436/2/6 440/2/6
f 431/2/6 437/2/6 441/2/6
f 440/2/6 436/2/6 444/2/6
f 441/2/6 442/2/6 445/2/6
f 431/2/6 441/2/6 445/2/6
f 445/2/6 442/2/6 446/2/6
f 446/2/6 442/2/6 447/2/6
f 443/2/6 444/2/6 448/2/6
f 444/2/6 436/2/6 449/2/6
f 448/2/6 444/2/6 449/2/6
f 449/2/6 436/2/6 450/2/6
f 446/2/6 447/2/6 451/2/6
f 447/2/6 448/2/6 451/2/6
f 448/2/6 449/2/6 451/2/6
f 451/2/6 449/2/6 452/2/6
f 453/2/6 454/2/6 456/2/6
f 456/2/6 454/2/6 457/2/6
f 455/2/6 456/2/6 459/2/6
f 459/2/6 456/2/6 460/2/6
f 457/2/6 458/2/6 461/2/6
f 461/2/6 458/2/6 462/2/6
f 460/2/6 461/2/6 463/2/6
f 463/2/6 461/2/6 464/2/6
f 465/1/6 466/1/6 467/1/6
f 467/1/6 466/1/6 468/1/6
