# MagicaVoxel @ Ephtracy

# group
g powerup_fire

# material
mtllib powerup_fire.mtl
usemtl palette

# normals
vn -1 0 0
vn 1 0 0
vn 0 0 1
vn 0 0 -1
vn 0 -1 0
vn 0 1 0

# texcoords
vt 0.841797 0.5
vt 0.873047 0.5
vt 0.904297 0.5
vt 0.931641 0.5
vt 0.935547 0.5
vt 0.962891 0.5
vt 0.966797 0.5

# verts
v -7 8 4
v -7 8 2
v -7 13 4
v -7 13 2
v -6 6 4
v -6 6 2
v -6 8 4
v -6 8 2
v -6 13 4
v -6 13 2
v -6 15 4
v -6 15 2
v -5 4 4
v -5 4 2
v -5 6 4
v -5 6 2
v -5 15 4
v -5 15 2
v -5 17 4
v -5 17 2
v -3 3 4
v -3 3 2
v -3 4 4
v -3 4 2
v -3 17 4
v -3 17 2
v -3 18 4
v -3 18 2
v -1 2 4
v -1 2 2
v -1 3 4
v -1 3 2
v -1 18 4
v -1 18 2
v -1 19 4
v -1 19 2
v 4 2 4
v 4 2 2
v 4 3 4
v 4 3 2
v 4 18 4
v 4 18 2
v 4 19 4
v 4 19 2
v 6 3 4
v 6 3 2
v 6 4 4
v 6 4 2
v 6 17 4
v 6 17 2
v 6 18 4
v 6 18 2
v 8 4 4
v 8 4 2
v 8 5 4
v 8 5 2
v 8 6 4
v 8 6 2
v 8 15 4
v 8 15 2
v 8 16 4
v 8 16 2
v 8 17 4
v 8 17 2
v 9 6 4
v 9 6 2
v 9 7 4
v 9 7 2
v 9 8 4
v 9 8 2
v 9 13 4
v 9 13 2
v 9 14 4
v 9 14 2
v 9 15 4
v 9 15 2
v 10 8 4
v 10 8 2
v 10 13 4
v 10 13 2
v -7 8 4
v -7 13 4
v -6 6 4
v -6 8 4
v -6 13 4
v -6 15 4
v -5 4 4
v -5 6 4
v -5 7 4
v -5 8 4
v -5 13 4
v -5 14 4
v -5 15 4
v -5 17 4
v -4 5 4
v -4 6 4
v -4 7 4
v -4 8 4
v -4 13 4
v -4 14 4
v -4 15 4
v -4 16 4
v -3 3 4
v -3 4 4
v -3 5 4
v -3 6 4
v -3 15 4
v -3 16 4
v -3 17 4
v -3 18 4
v -2 4 4
v -2 5 4
v -2 9 4
v -2 11 4
v -2 16 4
v -2 17 4
v -1 2 4
v -1 3 4
v -1 4 4
v -1 5 4
v -1 8 4
v -1 9 4
v -1 10 4
v -1 11 4
v -1 12 4
v -1 13 4
v -1 16 4
v -1 17 4
v -1 18 4
v -1 19 4
v 0 7 4
v 0 8 4
v 0 9 4
v 0 10 4
v 0 12 4
v 0 13 4
v 0 14 4
v 1 9 4
v 1 10 4
v 1 12 4
v 1 13 4
v 1 14 4
v 1 15 4
v 2 7 4
v 2 8 4
v 2 9 4
v 2 10 4
v 2 11 4
v 2 12 4
v 2 13 4
v 2 15 4
v 3 2 4
v 3 3 4
v 3 4 4
v 3 5 4
v 3 7 4
v 3 8 4
v 3 9 4
v 3 10 4
v 3 11 4
v 3 12 4
v 3 16 4
v 3 17 4
v 3 18 4
v 3 19 4
v 4 2 4
v 4 3 4
v 4 4 4
v 4 5 4
v 4 8 4
v 4 9 4
v 4 11 4
v 4 12 4
v 4 16 4
v 4 17 4
v 4 18 4
v 4 19 4
v 5 3 4
v 5 4 4
v 5 5 4
v 5 6 4
v 5 9 4
v 5 11 4
v 5 15 4
v 5 16 4
v 5 17 4
v 5 18 4
v 6 3 4
v 6 4 4
v 6 5 4
v 6 6 4
v 6 8 4
v 6 13 4
v 6 15 4
v 6 16 4
v 6 17 4
v 6 18 4
v 7 4 4
v 7 5 4
v 7 6 4
v 7 8 4
v 7 13 4
v 7 15 4
v 7 16 4
v 7 17 4
v 8 4 4
v 8 5 4
v 8 6 4
v 8 7 4
v 8 8 4
v 8 13 4
v 8 14 4
v 8 15 4
v 8 16 4
v 8 17 4
v 9 6 4
v 9 7 4
v 9 8 4
v 9 13 4
v 9 14 4
v 9 15 4
v 10 8 4
v 10 13 4
v -7 8 2
v -7 13 2
v -6 6 2
v -6 8 2
v -6 13 2
v -6 15 2
v -5 4 2
v -5 6 2
v -5 7 2
v -5 8 2
v -5 13 2
v -5 14 2
v -5 15 2
v -5 17 2
v -4 5 2
v -4 6 2
v -4 7 2
v -4 8 2
v -4 13 2
v -4 14 2
v -4 15 2
v -4 16 2
v -3 3 2
v -3 4 2
v -3 5 2
v -3 6 2
v -3 15 2
v -3 16 2
v -3 17 2
v -3 18 2
v -2 4 2
v -2 5 2
v -2 9 2
v -2 11 2
v -2 16 2
v -2 17 2
v -1 2 2
v -1 3 2
v -1 4 2
v -1 5 2
v -1 8 2
v -1 9 2
v -1 10 2
v -1 11 2
v -1 12 2
v -1 13 2
v -1 16 2
v -1 17 2
v -1 18 2
v -1 19 2
v 0 7 2
v 0 8 2
v 0 9 2
v 0 10 2
v 0 12 2
v 0 13 2
v 0 14 2
v 1 9 2
v 1 10 2
v 1 12 2
v 1 13 2
v 1 14 2
v 1 15 2
v 2 7 2
v 2 8 2
v 2 9 2
v 2 10 2
v 2 11 2
v 2 12 2
v 2 13 2
v 2 15 2
v 3 2 2
v 3 3 2
v 3 4 2
v 3 5 2
v 3 7 2
v 3 8 2
v 3 9 2
v 3 10 2
v 3 11 2
v 3 12 2
v 3 16 2
v 3 17 2
v 3 18 2
v 3 19 2
v 4 2 2
v 4 3 2
v 4 4 2
v 4 5 2
v 4 8 2
v 4 9 2
v 4 11 2
v 4 12 2
v 4 16 2
v 4 17 2
v 4 18 2
v 4 19 2
v 5 3 2
v 5 4 2
v 5 5 2
v 5 6 2
v 5 9 2
v 5 11 2
v 5 15 2
v 5 16 2
v 5 17 2
v 5 18 2
v 6 3 2
v 6 4 2
v 6 5 2
v 6 6 2
v 6 8 2
v 6 13 2
v 6 15 2
v 6 16 2
v 6 17 2
v 6 18 2
v 7 4 2
v 7 5 2
v 7 6 2
v 7 8 2
v 7 13 2
v 7 15 2
v 7 16 2
v 7 17 2
v 8 4 2
v 8 5 2
v 8 6 2
v 8 7 2
v 8 8 2
v 8 13 2
v 8 14 2
v 8 15 2
v 8 16 2
v 8 17 2
v 9 6 2
v 9 7 2
v 9 8 2
v 9 13 2
v 9 14 2
v 9 15 2
v 10 8 2
v 10 13 2
v -1 2 4
v 3 2 4
v 4 2 4
v -1 2 2
v 3 2 2
v 4 2 2
v -3 3 4
v -1 3 4
v 4 3 4
v 5 3 4
v 6 3 4
v -3 3 2
v -1 3 2
v 4 3 2
v 5 3 2
v 6 3 2
v -5 4 4
v -3 4 4
v 6 4 4
v 7 4 4
v 8 4 4
v -5 4 2
v -3 4 2
v 6 4 2
v 7 4 2
v 8 4 2
v -6 6 4
v -5 6 4
v 8 6 4
v 9 6 4
v -6 6 2
v -5 6 2
v 8 6 2
v 9 6 2
v -7 8 4
v -6 8 4
v 9 8 4
v 10 8 4
v -7 8 2
v -6 8 2
v 9 8 2
v 10 8 2
v -7 13 4
v -6 13 4
v 9 13 4
v 10 13 4
v -7 13 2
v -6 13 2
v 9 13 2
v 10 13 2
v -6 15 4
v -5 15 4
v 8 15 4
v 9 15 4
v -6 15 2
v -5 15 2
v 8 15 2
v 9 15 2
v -5 17 4
v -3 17 4
v 6 17 4
v 7 17 4
v 8 17 4
v -5 17 2
v -3 17 2
v 6 17 2
v 7 17 2
v 8 17 2
v -3 18 4
v -1 18 4
v 4 18 4
v 5 18 4
v 6 18 4
v -3 18 2
v -1 18 2
v 4 18 2
v 5 18 2
v 6 18 2
v -1 19 4
v 3 19 4
v 4 19 4
v -1 19 2
v 3 19 2
v 4 19 2

# faces
f 3/6/1 2/6/1 1/6/1
f 4/6/1 2/6/1 3/6/1
f 7/6/1 6/6/1 5/6/1
f 8/6/1 6/6/1 7/6/1
f 11/6/1 10/6/1 9/6/1
f 12/6/1 10/6/1 11/6/1
f 15/6/1 14/6/1 13/6/1
f 16/6/1 14/6/1 15/6/1
f 19/6/1 18/6/1 17/6/1
f 20/6/1 18/6/1 19/6/1
f 23/6/1 22/6/1 21/6/1
f 24/6/1 22/6/1 23/6/1
f 27/6/1 26/6/1 25/6/1
f 28/6/1 26/6/1 27/6/1
f 31/6/1 30/6/1 29/6/1
f 32/6/1 30/6/1 31/6/1
f 35/6/1 34/6/1 33/6/1
f 36/6/1 34/6/1 35/6/1
f 37/7/2 38/7/2 39/7/2
f 39/7/2 38/7/2 40/7/2
f 41/7/2 42/7/2 43/7/2
f 43/7/2 42/7/2 44/7/2
f 45/7/2 46/7/2 47/7/2
f 47/7/2 46/7/2 48/7/2
f 49/7/2 50/7/2 51/7/2
f 51/7/2 50/7/2 52/7/2
f 53/7/2 54/7/2 55/7/2
f 55/7/2 54/7/2 56/7/2
f 55/6/2 56/6/2 57/6/2
f 57/6/2 56/6/2 58/6/2
f 59/6/2 60/6/2 61/6/2
f 61/6/2 60/6/2 62/6/2
f 61/7/2 62/7/2 63/7/2
f 63/7/2 62/7/2 64/7/2
f 65/7/2 66/7/2 67/7/2
f 67/7/2 66/7/2 68/7/2
f 67/6/2 68/6/2 69/6/2
f 69/6/2 68/6/2 70/6/2
f 71/6/2 72/6/2 73/6/2
f 73/6/2 72/6/2 74/6/2
f 73/7/2 74/7/2 75/7/2
f 75/7/2 74/7/2 76/7/2
f 77/7/2 78/7/2 79/7/2
f 79/7/2 78/7/2 80/7/2
f 84/6/3 82/6/3 81/6/3
f 85/6/3 82/6/3 84/6/3
f 88/6/3 84/6/3 83/6/3
f 89/6/3 84/6/3 88/6/3
f 90/7/3 85/7/3 84/7/3
f 90/6/3 84/6/3 89/6/3
f 91/6/3 86/6/3 85/6/3
f 91/7/3 85/7/3 90/7/3
f 92/6/3 86/6/3 91/6/3
f 93/6/3 86/6/3 92/6/3
f 95/6/3 89/6/3 88/6/3
f 95/6/3 88/6/3 87/6/3
f 96/6/3 89/6/3 95/6/3
f 97/7/3 90/7/3 89/7/3
f 97/6/3 89/6/3 96/6/3
f 98/4/3 91/4/3 90/4/3
f 98/7/3 90/7/3 97/7/3
f 99/7/3 92/7/3 91/7/3
f 99/4/3 91/4/3 98/4/3
f 100/6/3 94/6/3 93/6/3
f 100/7/3 92/7/3 99/7/3
f 100/6/3 93/6/3 92/6/3
f 101/6/3 94/6/3 100/6/3
f 102/6/3 94/6/3 101/6/3
f 104/6/3 95/6/3 87/6/3
f 105/7/3 96/7/3 95/7/3
f 105/6/3 95/6/3 104/6/3
f 106/4/3 99/4/3 98/4/3
f 106/7/3 96/7/3 105/7/3
f 106/4/3 97/4/3 96/4/3
f 106/4/3 98/4/3 97/4/3
f 106/4/3 100/4/3 99/4/3
f 106/4/3 101/4/3 100/4/3
f 107/7/3 102/7/3 101/7/3
f 107/4/3 101/4/3 106/4/3
f 108/6/3 94/6/3 102/6/3
f 108/7/3 102/7/3 107/7/3
f 109/6/3 94/6/3 108/6/3
f 111/6/3 104/6/3 103/6/3
f 111/6/3 105/6/3 104/6/3
f 112/4/3 107/4/3 106/4/3
f 112/6/3 105/6/3 111/6/3
f 112/4/3 106/4/3 105/4/3
f 112/4/3 108/4/3 107/4/3
f 113/4/3 108/4/3 112/4/3
f 114/4/3 108/4/3 113/4/3
f 115/6/3 110/6/3 109/6/3
f 115/4/3 108/4/3 114/4/3
f 115/6/3 109/6/3 108/6/3
f 116/6/3 110/6/3 115/6/3
f 118/6/3 111/6/3 103/6/3
f 119/7/3 112/7/3 111/7/3
f 119/6/3 111/6/3 118/6/3
f 120/4/3 113/4/3 112/4/3
f 120/7/3 112/7/3 119/7/3
f 121/4/3 113/4/3 120/4/3
f 122/2/3 114/2/3 113/2/3
f 122/4/3 113/4/3 121/4/3
f 123/2/3 114/2/3 122/2/3
f 124/4/3 115/4/3 114/4/3
f 124/2/3 114/2/3 123/2/3
f 125/4/3 115/4/3 124/4/3
f 126/4/3 115/4/3 125/4/3
f 127/7/3 116/7/3 115/7/3
f 127/4/3 115/4/3 126/4/3
f 128/6/3 110/6/3 116/6/3
f 128/7/3 116/7/3 127/7/3
f 129/6/3 110/6/3 128/6/3
f 131/4/3 121/4/3 120/4/3
f 131/4/3 120/4/3 119/4/3
f 132/2/3 123/2/3 122/2/3
f 132/4/3 121/4/3 131/4/3
f 132/2/3 122/2/3 121/2/3
f 133/2/3 123/2/3 132/2/3
f 134/3/3 124/3/3 123/3/3
f 134/2/3 123/2/3 133/2/3
f 134/3/3 125/3/3 124/3/3
f 135/2/3 126/2/3 125/2/3
f 135/3/3 125/3/3 134/3/3
f 136/4/3 127/4/3 126/4/3
f 136/2/3 126/2/3 135/2/3
f 136/4/3 128/4/3 127/4/3
f 137/4/3 128/4/3 136/4/3
f 138/3/3 134/3/3 133/3/3
f 138/2/3 132/2/3 131/2/3
f 138/2/3 133/2/3 132/2/3
f 139/4/3 135/4/3 134/4/3
f 139/3/3 134/3/3 138/3/3
f 140/3/3 136/3/3 135/3/3
f 140/4/3 135/4/3 139/4/3
f 141/2/3 137/2/3 136/2/3
f 141/3/3 136/3/3 140/3/3
f 142/4/3 128/4/3 137/4/3
f 142/2/3 137/2/3 141/2/3
f 143/4/3 128/4/3 142/4/3
f 144/2/3 138/2/3 131/2/3
f 144/4/3 131/4/3 119/4/3
f 145/2/3 138/2/3 144/2/3
f 146/4/3 141/4/3 140/4/3
f 146/2/3 138/2/3 145/2/3
f 146/4/3 140/4/3 139/4/3
f 146/4/3 139/4/3 138/4/3
f 147/4/3 141/4/3 146/4/3
f 148/4/3 141/4/3 147/4/3
f 149/4/3 141/4/3 148/4/3
f 150/3/3 143/3/3 142/3/3
f 150/4/3 141/4/3 149/4/3
f 150/3/3 142/3/3 141/3/3
f 151/4/3 128/4/3 143/4/3
f 151/3/3 143/3/3 150/3/3
f 152/6/3 119/6/3 118/6/3
f 152/6/3 118/6/3 117/6/3
f 153/6/3 119/6/3 152/6/3
f 154/4/3 144/4/3 119/4/3
f 154/6/3 119/6/3 153/6/3
f 155/4/3 144/4/3 154/4/3
f 156/1/3 145/1/3 144/1/3
f 156/4/3 144/4/3 155/4/3
f 157/2/3 146/2/3 145/2/3
f 157/1/3 145/1/3 156/1/3
f 157/2/3 147/2/3 146/2/3
f 158/2/3 147/2/3 157/2/3
f 159/4/3 148/4/3 147/4/3
f 159/2/3 147/2/3 158/2/3
f 160/2/3 149/2/3 148/2/3
f 160/4/3 148/4/3 159/4/3
f 161/4/3 150/4/3 149/4/3
f 161/2/3 149/2/3 160/2/3
f 161/4/3 151/4/3 150/4/3
f 162/4/3 128/4/3 151/4/3
f 162/4/3 151/4/3 161/4/3
f 163/6/3 130/6/3 129/6/3
f 163/4/3 128/4/3 162/4/3
f 163/6/3 129/6/3 128/6/3
f 164/6/3 130/6/3 163/6/3
f 165/6/3 130/6/3 164/6/3
f 166/7/3 153/7/3 152/7/3
f 167/6/3 154/6/3 153/6/3
f 167/7/3 153/7/3 166/7/3
f 168/5/3 155/5/3 154/5/3
f 168/6/3 154/6/3 167/6/3
f 169/4/3 157/4/3 156/4/3
f 169/5/3 155/5/3 168/5/3
f 169/4/3 156/4/3 155/4/3
f 170/1/3 158/1/3 157/1/3
f 170/4/3 157/4/3 169/4/3
f 171/2/3 160/2/3 159/2/3
f 171/1/3 158/1/3 170/1/3
f 171/2/3 159/2/3 158/2/3
f 172/1/3 161/1/3 160/1/3
f 172/2/3 160/2/3 171/2/3
f 173/4/3 162/4/3 161/4/3
f 173/1/3 161/1/3 172/1/3
f 174/5/3 163/5/3 162/5/3
f 174/4/3 162/4/3 173/4/3
f 175/6/3 164/6/3 163/6/3
f 175/5/3 163/5/3 174/5/3
f 176/7/3 165/7/3 164/7/3
f 176/6/3 164/6/3 175/6/3
f 177/7/3 165/7/3 176/7/3
f 178/6/3 168/6/3 167/6/3
f 178/6/3 169/6/3 168/6/3
f 179/6/3 169/6/3 178/6/3
f 180/4/3 171/4/3 170/4/3
f 180/6/3 169/6/3 179/6/3
f 180/4/3 170/4/3 169/4/3
f 181/4/3 171/4/3 180/4/3
f 182/1/3 172/1/3 171/1/3
f 182/4/3 171/4/3 181/4/3
f 183/4/3 174/4/3 173/4/3
f 183/1/3 172/1/3 182/1/3
f 183/4/3 173/4/3 172/4/3
f 184/4/3 174/4/3 183/4/3
f 185/6/3 176/6/3 175/6/3
f 185/4/3 174/4/3 184/4/3
f 185/6/3 175/6/3 174/6/3
f 186/6/3 176/6/3 185/6/3
f 187/6/3 176/6/3 186/6/3
f 188/7/3 179/7/3 178/7/3
f 189/6/3 180/6/3 179/6/3
f 189/7/3 179/7/3 188/7/3
f 190/5/3 181/5/3 180/5/3
f 190/6/3 180/6/3 189/6/3
f 191/4/3 182/4/3 181/4/3
f 191/5/3 181/5/3 190/5/3
f 191/4/3 184/4/3 183/4/3
f 191/4/3 183/4/3 182/4/3
f 192/4/3 184/4/3 191/4/3
f 193/4/3 184/4/3 192/4/3
f 194/5/3 185/5/3 184/5/3
f 194/4/3 184/4/3 193/4/3
f 195/6/3 186/6/3 185/6/3
f 195/5/3 185/5/3 194/5/3
f 196/7/3 187/7/3 186/7/3
f 196/6/3 186/6/3 195/6/3
f 197/7/3 187/7/3 196/7/3
f 198/6/3 190/6/3 189/6/3
f 198/6/3 191/6/3 190/6/3
f 199/6/3 191/6/3 198/6/3
f 200/5/3 192/5/3 191/5/3
f 200/6/3 191/6/3 199/6/3
f 201/4/3 193/4/3 192/4/3
f 201/5/3 192/5/3 200/5/3
f 202/5/3 194/5/3 193/5/3
f 202/4/3 193/4/3 201/4/3
f 203/6/3 196/6/3 195/6/3
f 203/5/3 194/5/3 202/5/3
f 203/6/3 195/6/3 194/6/3
f 204/6/3 196/6/3 203/6/3
f 205/6/3 196/6/3 204/6/3
f 206/7/3 199/7/3 198/7/3
f 207/6/3 201/6/3 200/6/3
f 207/7/3 199/7/3 206/7/3
f 207/6/3 200/6/3 199/6/3
f 208/6/3 201/6/3 207/6/3
f 209/6/3 201/6/3 208/6/3
f 210/5/3 202/5/3 201/5/3
f 210/6/3 201/6/3 209/6/3
f 211/6/3 203/6/3 202/6/3
f 211/5/3 202/5/3 210/5/3
f 211/6/3 204/6/3 203/6/3
f 212/6/3 204/6/3 211/6/3
f 213/6/3 204/6/3 212/6/3
f 214/7/3 205/7/3 204/7/3
f 214/6/3 204/6/3 213/6/3
f 215/7/3 205/7/3 214/7/3
f 216/7/3 209/7/3 208/7/3
f 217/6/3 210/6/3 209/6/3
f 217/7/3 209/7/3 216/7/3
f 217/6/3 212/6/3 211/6/3
f 217/6/3 211/6/3 210/6/3
f 218/6/3 212/6/3 217/6/3
f 219/6/3 212/6/3 218/6/3
f 220/7/3 213/7/3 212/7/3
f 220/6/3 212/6/3 219/6/3
f 221/7/3 213/7/3 220/7/3
f 222/7/3 219/7/3 218/7/3
f 223/7/3 219/7/3 222/7/3
f 224/6/4 225/6/4 227/6/4
f 227/6/4 225/6/4 228/6/4
f 226/6/4 227/6/4 231/6/4
f 231/6/4 227/6/4 232/6/4
f 227/7/4 228/7/4 233/7/4
f 232/6/4 227/6/4 233/6/4
f 228/6/4 229/6/4 234/6/4
f 233/7/4 228/7/4 234/7/4
f 234/6/4 229/6/4 235/6/4
f 235/6/4 229/6/4 236/6/4
f 231/6/4 232/6/4 238/6/4
f 230/6/4 231/6/4 238/6/4
f 238/6/4 232/6/4 239/6/4
f 232/7/4 233/7/4 240/7/4
f 239/6/4 232/6/4 240/6/4
f 233/4/4 234/4/4 241/4/4
f 240/7/4 233/7/4 241/7/4
f 234/7/4 235/7/4 242/7/4
f 241/4/4 234/4/4 242/4/4
f 236/6/4 237/6/4 243/6/4
f 242/7/4 235/7/4 243/7/4
f 235/6/4 236/6/4 243/6/4
f 243/6/4 237/6/4 244/6/4
f 244/6/4 237/6/4 245/6/4
f 230/6/4 238/6/4 247/6/4
f 238/7/4 239/7/4 248/7/4
f 247/6/4 238/6/4 248/6/4
f 241/4/4 242/4/4 249/4/4
f 248/7/4 239/7/4 249/7/4
f 239/4/4 240/4/4 249/4/4
f 240/4/4 241/4/4 249/4/4
f 242/4/4 243/4/4 249/4/4
f 243/4/4 244/4/4 249/4/4
f 244/7/4 245/7/4 250/7/4
f 249/4/4 244/4/4 250/4/4
f 245/6/4 237/6/4 251/6/4
f 250/7/4 245/7/4 251/7/4
f 251/6/4 237/6/4 252/6/4
f 246/6/4 247/6/4 254/6/4
f 247/6/4 248/6/4 254/6/4
f 249/4/4 250/4/4 255/4/4
f 254/6/4 248/6/4 255/6/4
f 248/4/4 249/4/4 255/4/4
f 250/4/4 251/4/4 255/4/4
f 255/4/4 251/4/4 256/4/4
f 256/4/4 251/4/4 257/4/4
f 252/6/4 253/6/4 258/6/4
f 257/4/4 251/4/4 258/4/4
f 251/6/4 252/6/4 258/6/4
f 258/6/4 253/6/4 259/6/4
f 246/6/4 254/6/4 261/6/4
f 254/7/4 255/7/4 262/7/4
f 261/6/4 254/6/4 262/6/4
f 255/4/4 256/4/4 263/4/4
f 262/7/4 255/7/4 263/7/4
f 263/4/4 256/4/4 264/4/4
f 256/2/4 257/2/4 265/2/4
f 264/4/4 256/4/4 265/4/4
f 265/2/4 257/2/4 266/2/4
f 257/4/4 258/4/4 267/4/4
f 266/2/4 257/2/4 267/2/4
f 267/4/4 258/4/4 268/4/4
f 268/4/4 258/4/4 269/4/4
f 258/7/4 259/7/4 270/7/4
f 269/4/4 258/4/4 270/4/4
f 259/6/4 253/6/4 271/6/4
f 270/7/4 259/7/4 271/7/4
f 271/6/4 253/6/4 272/6/4
f 263/4/4 264/4/4 274/4/4
f 262/4/4 263/4/4 274/4/4
f 265/2/4 266/2/4 275/2/4
f 274/4/4 264/4/4 275/4/4
f 264/2/4 265/2/4 275/2/4
f 275/2/4 266/2/4 276/2/4
f 266/3/4 267/3/4 277/3/4
f 276/2/4 266/2/4 277/2/4
f 267/3/4 268/3/4 277/3/4
f 268/2/4 269/2/4 278/2/4
f 277/3/4 268/3/4 278/3/4
f 269/4/4 270/4/4 279/4/4
f 278/2/4 269/2/4 279/2/4
f 270/4/4 271/4/4 279/4/4
f 279/4/4 271/4/4 280/4/4
f 276/3/4 277/3/4 281/3/4
f 274/2/4 275/2/4 281/2/4
f 275/2/4 276/2/4 281/2/4
f 277/4/4 278/4/4 282/4/4
f 281/3/4 277/3/4 282/3/4
f 278/3/4 279/3/4 283/3/4
f 282/4/4 278/4/4 283/4/4
f 279/2/4 280/2/4 284/2/4
f 283/3/4 279/3/4 284/3/4
f 280/4/4 271/4/4 285/4/4
f 284/2/4 280/2/4 285/2/4
f 285/4/4 271/4/4 286/4/4
f 274/2/4 281/2/4 287/2/4
f 262/4/4 274/4/4 287/4/4
f 287/2/4 281/2/4 288/2/4
f 283/4/4 284/4/4 289/4/4
f 288/2/4 281/2/4 289/2/4
f 282/4/4 283/4/4 289/4/4
f 281/4/4 282/4/4 289/4/4
f 289/4/4 284/4/4 290/4/4
f 290/4/4 284/4/4 291/4/4
f 291/4/4 284/4/4 292/4/4
f 285/3/4 286/3/4 293/3/4
f 292/4/4 284/4/4 293/4/4
f 284/3/4 285/3/4 293/3/4
f 286/4/4 271/4/4 294/4/4
f 293/3/4 286/3/4 294/3/4
f 261/6/4 262/6/4 295/6/4
f 260/6/4 261/6/4 295/6/4
f 295/6/4 262/6/4 296/6/4
f 262/4/4 287/4/4 297/4/4
f 296/6/4 262/6/4 297/6/4
f 297/4/4 287/4/4 298/4/4
f 287/1/4 288/1/4 299/1/4
f 298/4/4 287/4/4 299/4/4
f 288/2/4 289/2/4 300/2/4
f 299/1/4 288/1/4 300/1/4
f 289/2/4 290/2/4 300/2/4
f 300/2/4 290/2/4 301/2/4
f 290/4/4 291/4/4 302/4/4
f 301/2/4 290/2/4 302/2/4
f 291/2/4 292/2/4 303/2/4
f 302/4/4 291/4/4 303/4/4
f 292/4/4 293/4/4 304/4/4
f 303/2/4 292/2/4 304/2/4
f 293/4/4 294/4/4 304/4/4
f 294/4/4 271/4/4 305/4/4
f 304/4/4 294/4/4 305/4/4
f 272/6/4 273/6/4 306/6/4
f 305/4/4 271/4/4 306/4/4
f 271/6/4 272/6/4 306/6/4
f 306/6/4 273/6/4 307/6/4
f 307/6/4 273/6/4 308/6/4
f 295/7/4 296/7/4 309/7/4
f 296/6/4 297/6/4 310/6/4
f 309/7/4 296/7/4 310/7/4
f 297/5/4 298/5/4 311/5/4
f 310/6/4 297/6/4 311/6/4
f 299/4/4 300/4/4 312/4/4
f 311/5/4 298/5/4 312/5/4
f 298/4/4 299/4/4 312/4/4
f 300/1/4 301/1/4 313/1/4
f 312/4/4 300/4/4 313/4/4
f 302/2/4 303/2/4 314/2/4
f 313/1/4 301/1/4 314/1/4
f 301/2/4 302/2/4 314/2/4
f 303/1/4 304/1/4 315/1/4
f 314/2/4 303/2/4 315/2/4
f 304/4/4 305/4/4 316/4/4
f 315/1/4 304/1/4 316/1/4
f 305/5/4 306/5/4 317/5/4
f 316/4/4 305/4/4 317/4/4
f 306/6/4 307/6/4 318/6/4
f 317/5/4 306/5/4 318/5/4
f 307/7/4 308/7/4 319/7/4
f 318/6/4 307/6/4 319/6/4
f 319/7/4 308/7/4 320/7/4
f 310/6/4 311/6/4 321/6/4
f 311/6/4 312/6/4 321/6/4
f 321/6/4 312/6/4 322/6/4
f 313/4/4 314/4/4 323/4/4
f 322/6/4 312/6/4 323/6/4
f 312/4/4 313/4/4 323/4/4
f 323/4/4 314/4/4 324/4/4
f 314/1/4 315/1/4 325/1/4
f 324/4/4 314/4/4 325/4/4
f 316/4/4 317/4/4 326/4/4
f 325/1/4 315/1/4 326/1/4
f 315/4/4 316/4/4 326/4/4
f 326/4/4 317/4/4 327/4/4
f 318/6/4 319/6/4 328/6/4
f 327/4/4 317/4/4 328/4/4
f 317/6/4 318/6/4 328/6/4
f 328/6/4 319/6/4 329/6/4
f 329/6/4 319/6/4 330/6/4
f 321/7/4 322/7/4 331/7/4
f 322/6/4 323/6/4 332/6/4
f 331/7/4 322/7/4 332/7/4
f 323/5/4 324/5/4 333/5/4
f 332/6/4 323/6/4 333/6/4
f 324/4/4 325/4/4 334/4/4
f 333/5/4 324/5/4 334/5/4
f 326/4/4 327/4/4 334/4/4
f 325/4/4 326/4/4 334/4/4
f 334/4/4 327/4/4 335/4/4
f 335/4/4 327/4/4 336/4/4
f 327/5/4 328/5/4 337/5/4
f 336/4/4 327/4/4 337/4/4
f 328/6/4 329/6/4 338/6/4
f 337/5/4 328/5/4 338/5/4
f 329/7/4 330/7/4 339/7/4
f 338/6/4 329/6/4 339/6/4
f 339/7/4 330/7/4 340/7/4
f 332/6/4 333/6/4 341/6/4
f 333/6/4 334/6/4 341/6/4
f 341/6/4 334/6/4 342/6/4
f 334/5/4 335/5/4 343/5/4
f 342/6/4 334/6/4 343/6/4
f 335/4/4 336/4/4 344/4/4
f 343/5/4 335/5/4 344/5/4
f 336/5/4 337/5/4 345/5/4
f 344/4/4 336/4/4 345/4/4
f 338/6/4 339/6/4 346/6/4
f 345/5/4 337/5/4 346/5/4
f 337/6/4 338/6/4 346/6/4
f 346/6/4 339/6/4 347/6/4
f 347/6/4 339/6/4 348/6/4
f 341/7/4 342/7/4 349/7/4
f 343/6/4 344/6/4 350/6/4
f 349/7/4 342/7/4 350/7/4
f 342/6/4 343/6/4 350/6/4
f 350/6/4 344/6/4 351/6/4
f 351/6/4 344/6/4 352/6/4
f 344/5/4 345/5/4 353/5/4
f 352/6/4 344/6/4 353/6/4
f 345/6/4 346/6/4 354/6/4
f 353/5/4 345/5/4 354/5/4
f 346/6/4 347/6/4 354/6/4
f 354/6/4 347/6/4 355/6/4
f 355/6/4 347/6/4 356/6/4
f 347/7/4 348/7/4 357/7/4
f 356/6/4 347/6/4 357/6/4
f 357/7/4 348/7/4 358/7/4
f 351/7/4 352/7/4 359/7/4
f 352/6/4 353/6/4 360/6/4
f 359/7/4 352/7/4 360/7/4
f 354/6/4 355/6/4 360/6/4
f 353/6/4 354/6/4 360/6/4
f 360/6/4 355/6/4 361/6/4
f 361/6/4 355/6/4 362/6/4
f 355/7/4 356/7/4 363/7/4
f 362/6/4 355/6/4 363/6/4
f 363/7/4 356/7/4 364/7/4
f 361/7/4 362/7/4 365/7/4
f 365/7/4 362/7/4 366/7/4
f 370/6/5 368/6/5 367/6/5
f 371/7/5 369/7/5 368/7/5
f 371/6/5 368/6/5 370/6/5
f 372/7/5 369/7/5 371/7/5
f 378/6/5 374/6/5 373/6/5
f 379/6/5 374/6/5 378/6/5
f 380/6/5 376/6/5 375/6/5
f 381/7/5 377/7/5 376/7/5
f 381/6/5 376/6/5 380/6/5
f 382/7/5 377/7/5 381/7/5
f 388/6/5 384/6/5 383/6/5
f 389/6/5 384/6/5 388/6/5
f 390/6/5 386/6/5 385/6/5
f 391/7/5 387/7/5 386/7/5
f 391/6/5 386/6/5 390/6/5
f 392/7/5 387/7/5 391/7/5
f 397/6/5 394/6/5 393/6/5
f 398/6/5 394/6/5 397/6/5
f 399/7/5 396/7/5 395/7/5
f 400/7/5 396/7/5 399/7/5
f 405/6/5 402/6/5 401/6/5
f 406/6/5 402/6/5 405/6/5
f 407/7/5 404/7/5 403/7/5
f 408/7/5 404/7/5 407/7/5
f 409/6/6 410/6/6 413/6/6
f 413/6/6 410/6/6 414/6/6
f 411/7/6 412/7/6 415/7/6
f 415/7/6 412/7/6 416/7/6
f 417/6/6 418/6/6 421/6/6
f 421/6/6 418/6/6 422/6/6
f 419/7/6 420/7/6 423/7/6
f 423/7/6 420/7/6 424/7/6
f 425/6/6 426/6/6 430/6/6
f 430/6/6 426/6/6 431/6/6
f 427/6/6 428/6/6 432/6/6
f 428/7/6 429/7/6 433/7/6
f 432/6/6 428/6/6 433/6/6
f 433/7/6 429/7/6 434/7/6
f 435/6/6 436/6/6 440/6/6
f 440/6/6 436/6/6 441/6/6
f 437/6/6 438/6/6 442/6/6
f 438/7/6 439/7/6 443/7/6
f 442/6/6 438/6/6 443/6/6
f 443/7/6 439/7/6 444/7/6
f 445/6/6 446/6/6 448/6/6
f 446/7/6 447/7/6 449/7/6
f 448/6/6 446/6/6 449/6/6
f 449/7/6 447/7/6 450/7/6
