# MagicaVoxel @ Ephtracy

# group
g powerup_bomb

# material
mtllib powerup_bomb.mtl
usemtl palette

# normals
vn -1 0 0
vn 1 0 0
vn 0 0 1
vn 0 0 -1
vn 0 -1 0
vn 0 1 0

# texcoords
vt 0.841797 0.5
vt 0.873047 0.5
vt 0.904297 0.5
vt 0.931641 0.5
vt 0.935547 0.5
vt 0.951172 0.5
vt 0.962891 0.5
vt 0.966797 0.5

# verts
v -9 8 10
v -9 8 8
v -9 13 10
v -9 13 8
v -8 6 10
v -8 6 8
v -8 8 10
v -8 8 8
v -8 13 10
v -8 13 8
v -8 15 10
v -8 15 8
v -7 4 10
v -7 4 8
v -7 6 10
v -7 6 8
v -7 15 10
v -7 15 8
v -7 17 10
v -7 17 8
v -5 3 10
v -5 3 8
v -5 4 10
v -5 4 8
v -5 17 10
v -5 17 8
v -5 18 10
v -5 18 8
v -3 2 10
v -3 2 8
v -3 3 10
v -3 3 8
v -3 18 10
v -3 18 8
v -3 19 10
v -3 19 8
v 2 2 10
v 2 2 8
v 2 3 10
v 2 3 8
v 2 18 10
v 2 18 8
v 2 19 10
v 2 19 8
v 4 3 10
v 4 3 8
v 4 4 10
v 4 4 8
v 4 17 10
v 4 17 8
v 4 18 10
v 4 18 8
v 6 4 10
v 6 4 8
v 6 5 10
v 6 5 8
v 6 6 10
v 6 6 8
v 6 15 10
v 6 15 8
v 6 16 10
v 6 16 8
v 6 17 10
v 6 17 8
v 7 6 10
v 7 6 8
v 7 7 10
v 7 7 8
v 7 8 10
v 7 8 8
v 7 13 10
v 7 13 8
v 7 14 10
v 7 14 8
v 7 15 10
v 7 15 8
v 8 8 10
v 8 8 8
v 8 13 10
v 8 13 8
v -9 8 10
v -9 13 10
v -8 6 10
v -8 8 10
v -8 13 10
v -8 15 10
v -7 4 10
v -7 6 10
v -7 7 10
v -7 8 10
v -7 13 10
v -7 14 10
v -7 15 10
v -7 17 10
v -6 5 10
v -6 6 10
v -6 7 10
v -6 8 10
v -6 13 10
v -6 14 10
v -6 15 10
v -6 16 10
v -5 3 10
v -5 4 10
v -5 5 10
v -5 6 10
v -5 15 10
v -5 16 10
v -5 17 10
v -5 18 10
v -4 4 10
v -4 5 10
v -4 16 10
v -4 17 10
v -3 2 10
v -3 3 10
v -3 4 10
v -3 5 10
v -3 8 10
v -3 11 10
v -3 16 10
v -3 17 10
v -3 18 10
v -3 19 10
v -2 7 10
v -2 8 10
v -2 11 10
v -2 12 10
v -1 12 10
v -1 14 10
v 0 7 10
v 0 8 10
v 0 11 10
v 0 12 10
v 0 13 10
v 0 14 10
v 0 15 10
v 1 2 10
v 1 3 10
v 1 4 10
v 1 5 10
v 1 7 10
v 1 8 10
v 1 11 10
v 1 12 10
v 1 13 10
v 1 15 10
v 1 16 10
v 1 17 10
v 1 18 10
v 1 19 10
v 2 2 10
v 2 3 10
v 2 4 10
v 2 5 10
v 2 8 10
v 2 11 10
v 2 16 10
v 2 17 10
v 2 18 10
v 2 19 10
v 3 3 10
v 3 4 10
v 3 5 10
v 3 6 10
v 3 15 10
v 3 16 10
v 3 17 10
v 3 18 10
v 4 3 10
v 4 4 10
v 4 5 10
v 4 6 10
v 4 8 10
v 4 13 10
v 4 15 10
v 4 16 10
v 4 17 10
v 4 18 10
v 5 4 10
v 5 5 10
v 5 6 10
v 5 8 10
v 5 13 10
v 5 15 10
v 5 16 10
v 5 17 10
v 6 4 10
v 6 5 10
v 6 6 10
v 6 7 10
v 6 8 10
v 6 13 10
v 6 14 10
v 6 15 10
v 6 16 10
v 6 17 10
v 7 6 10
v 7 7 10
v 7 8 10
v 7 13 10
v 7 14 10
v 7 15 10
v 8 8 10
v 8 13 10
v -9 8 8
v -9 13 8
v -8 6 8
v -8 8 8
v -8 13 8
v -8 15 8
v -7 4 8
v -7 6 8
v -7 7 8
v -7 8 8
v -7 13 8
v -7 14 8
v -7 15 8
v -7 17 8
v -6 5 8
v -6 6 8
v -6 7 8
v -6 8 8
v -6 13 8
v -6 14 8
v -6 15 8
v -6 16 8
v -5 3 8
v -5 4 8
v -5 5 8
v -5 6 8
v -5 15 8
v -5 16 8
v -5 17 8
v -5 18 8
v -4 4 8
v -4 5 8
v -4 16 8
v -4 17 8
v -3 2 8
v -3 3 8
v -3 4 8
v -3 5 8
v -3 8 8
v -3 11 8
v -3 16 8
v -3 17 8
v -3 18 8
v -3 19 8
v -2 7 8
v -2 8 8
v -2 11 8
v -2 12 8
v -1 12 8
v -1 14 8
v 0 7 8
v 0 8 8
v 0 11 8
v 0 12 8
v 0 13 8
v 0 14 8
v 0 15 8
v 1 2 8
v 1 3 8
v 1 4 8
v 1 5 8
v 1 7 8
v 1 8 8
v 1 11 8
v 1 12 8
v 1 13 8
v 1 15 8
v 1 16 8
v 1 17 8
v 1 18 8
v 1 19 8
v 2 2 8
v 2 3 8
v 2 4 8
v 2 5 8
v 2 8 8
v 2 11 8
v 2 16 8
v 2 17 8
v 2 18 8
v 2 19 8
v 3 3 8
v 3 4 8
v 3 5 8
v 3 6 8
v 3 15 8
v 3 16 8
v 3 17 8
v 3 18 8
v 4 3 8
v 4 4 8
v 4 5 8
v 4 6 8
v 4 8 8
v 4 13 8
v 4 15 8
v 4 16 8
v 4 17 8
v 4 18 8
v 5 4 8
v 5 5 8
v 5 6 8
v 5 8 8
v 5 13 8
v 5 15 8
v 5 16 8
v 5 17 8
v 6 4 8
v 6 5 8
v 6 6 8
v 6 7 8
v 6 8 8
v 6 13 8
v 6 14 8
v 6 15 8
v 6 16 8
v 6 17 8
v 7 6 8
v 7 7 8
v 7 8 8
v 7 13 8
v 7 14 8
v 7 15 8
v 8 8 8
v 8 13 8
v -3 2 10
v 1 2 10
v 2 2 10
v -3 2 8
v 1 2 8
v 2 2 8
v -5 3 10
v -3 3 10
v 2 3 10
v 3 3 10
v 4 3 10
v -5 3 8
v -3 3 8
v 2 3 8
v 3 3 8
v 4 3 8
v -7 4 10
v -5 4 10
v 4 4 10
v 5 4 10
v 6 4 10
v -7 4 8
v -5 4 8
v 4 4 8
v 5 4 8
v 6 4 8
v -8 6 10
v -7 6 10
v 6 6 10
v 7 6 10
v -8 6 8
v -7 6 8
v 6 6 8
v 7 6 8
v -9 8 10
v -8 8 10
v 7 8 10
v 8 8 10
v -9 8 8
v -8 8 8
v 7 8 8
v 8 8 8
v -9 13 10
v -8 13 10
v 7 13 10
v 8 13 10
v -9 13 8
v -8 13 8
v 7 13 8
v 8 13 8
v -8 15 10
v -7 15 10
v 6 15 10
v 7 15 10
v -8 15 8
v -7 15 8
v 6 15 8
v 7 15 8
v -7 17 10
v -5 17 10
v 4 17 10
v 5 17 10
v 6 17 10
v -7 17 8
v -5 17 8
v 4 17 8
v 5 17 8
v 6 17 8
v -5 18 10
v -3 18 10
v 2 18 10
v 3 18 10
v 4 18 10
v -5 18 8
v -3 18 8
v 2 18 8
v 3 18 8
v 4 18 8
v -3 19 10
v 1 19 10
v 2 19 10
v -3 19 8
v 1 19 8
v 2 19 8

# faces
f 3/7/1 2/7/1 1/7/1
f 4/7/1 2/7/1 3/7/1
f 7/7/1 6/7/1 5/7/1
f 8/7/1 6/7/1 7/7/1
f 11/7/1 10/7/1 9/7/1
f 12/7/1 10/7/1 11/7/1
f 15/7/1 14/7/1 13/7/1
f 16/7/1 14/7/1 15/7/1
f 19/7/1 18/7/1 17/7/1
f 20/7/1 18/7/1 19/7/1
f 23/7/1 22/7/1 21/7/1
f 24/7/1 22/7/1 23/7/1
f 27/7/1 26/7/1 25/7/1
f 28/7/1 26/7/1 27/7/1
f 31/7/1 30/7/1 29/7/1
f 32/7/1 30/7/1 31/7/1
f 35/7/1 34/7/1 33/7/1
f 36/7/1 34/7/1 35/7/1
f 37/8/2 38/8/2 39/8/2
f 39/8/2 38/8/2 40/8/2
f 41/8/2 42/8/2 43/8/2
f 43/8/2 42/8/2 44/8/2
f 45/8/2 46/8/2 47/8/2
f 47/8/2 46/8/2 48/8/2
f 49/8/2 50/8/2 51/8/2
f 51/8/2 50/8/2 52/8/2
f 53/8/2 54/8/2 55/8/2
f 55/8/2 54/8/2 56/8/2
f 55/7/2 56/7/2 57/7/2
f 57/7/2 56/7/2 58/7/2
f 59/7/2 60/7/2 61/7/2
f 61/7/2 60/7/2 62/7/2
f 61/8/2 62/8/2 63/8/2
f 63/8/2 62/8/2 64/8/2
f 65/8/2 66/8/2 67/8/2
f 67/8/2 66/8/2 68/8/2
f 67/7/2 68/7/2 69/7/2
f 69/7/2 68/7/2 70/7/2
f 71/7/2 72/7/2 73/7/2
f 73/7/2 72/7/2 74/7/2
f 73/8/2 74/8/2 75/8/2
f 75/8/2 74/8/2 76/8/2
f 77/8/2 78/8/2 79/8/2
f 79/8/2 78/8/2 80/8/2
f 84/7/3 82/7/3 81/7/3
f 85/7/3 82/7/3 84/7/3
f 88/7/3 84/7/3 83/7/3
f 89/7/3 84/7/3 88/7/3
f 90/8/3 85/8/3 84/8/3
f 90/7/3 84/7/3 89/7/3
f 91/7/3 86/7/3 85/7/3
f 91/8/3 85/8/3 90/8/3
f 92/7/3 86/7/3 91/7/3
f 93/7/3 86/7/3 92/7/3
f 95/7/3 89/7/3 88/7/3
f 95/7/3 88/7/3 87/7/3
f 96/7/3 89/7/3 95/7/3
f 97/8/3 90/8/3 89/8/3
f 97/7/3 89/7/3 96/7/3
f 98/4/3 91/4/3 90/4/3
f 98/8/3 90/8/3 97/8/3
f 99/8/3 92/8/3 91/8/3
f 99/4/3 91/4/3 98/4/3
f 100/7/3 94/7/3 93/7/3
f 100/8/3 92/8/3 99/8/3
f 100/7/3 93/7/3 92/7/3
f 101/7/3 94/7/3 100/7/3
f 102/7/3 94/7/3 101/7/3
f 104/7/3 95/7/3 87/7/3
f 105/8/3 96/8/3 95/8/3
f 105/7/3 95/7/3 104/7/3
f 106/4/3 99/4/3 98/4/3
f 106/8/3 96/8/3 105/8/3
f 106/4/3 97/4/3 96/4/3
f 106/4/3 98/4/3 97/4/3
f 106/4/3 100/4/3 99/4/3
f 106/4/3 101/4/3 100/4/3
f 107/8/3 102/8/3 101/8/3
f 107/4/3 101/4/3 106/4/3
f 108/7/3 94/7/3 102/7/3
f 108/8/3 102/8/3 107/8/3
f 109/7/3 94/7/3 108/7/3
f 111/7/3 104/7/3 103/7/3
f 111/7/3 105/7/3 104/7/3
f 112/4/3 107/4/3 106/4/3
f 112/7/3 105/7/3 111/7/3
f 112/4/3 106/4/3 105/4/3
f 112/4/3 108/4/3 107/4/3
f 113/7/3 110/7/3 109/7/3
f 113/4/3 108/4/3 112/4/3
f 113/7/3 109/7/3 108/7/3
f 114/7/3 110/7/3 113/7/3
f 116/7/3 111/7/3 103/7/3
f 117/8/3 112/8/3 111/8/3
f 117/7/3 111/7/3 116/7/3
f 118/4/3 113/4/3 112/4/3
f 118/8/3 112/8/3 117/8/3
f 119/4/3 113/4/3 118/4/3
f 120/4/3 113/4/3 119/4/3
f 121/8/3 114/8/3 113/8/3
f 121/4/3 113/4/3 120/4/3
f 122/7/3 110/7/3 114/7/3
f 122/8/3 114/8/3 121/8/3
f 123/7/3 110/7/3 122/7/3
f 125/4/3 118/4/3 117/4/3
f 125/4/3 119/4/3 118/4/3
f 126/3/3 120/3/3 119/3/3
f 126/4/3 119/4/3 125/4/3
f 127/4/3 121/4/3 120/4/3
f 127/3/3 120/3/3 126/3/3
f 127/4/3 122/4/3 121/4/3
f 128/4/3 122/4/3 127/4/3
f 129/3/3 126/3/3 125/3/3
f 129/4/3 122/4/3 128/4/3
f 129/3/3 128/3/3 127/3/3
f 129/3/3 127/3/3 126/3/3
f 130/4/3 122/4/3 129/4/3
f 131/4/3 125/4/3 117/4/3
f 131/3/3 129/3/3 125/3/3
f 132/3/3 129/3/3 131/3/3
f 133/3/3 129/3/3 132/3/3
f 134/6/3 130/6/3 129/6/3
f 134/3/3 129/3/3 133/3/3
f 135/6/3 130/6/3 134/6/3
f 136/4/3 122/4/3 130/4/3
f 136/6/3 130/6/3 135/6/3
f 137/4/3 122/4/3 136/4/3
f 138/7/3 116/7/3 115/7/3
f 138/7/3 117/7/3 116/7/3
f 139/7/3 117/7/3 138/7/3
f 140/4/3 131/4/3 117/4/3
f 140/7/3 117/7/3 139/7/3
f 141/4/3 131/4/3 140/4/3
f 142/2/3 132/2/3 131/2/3
f 142/4/3 131/4/3 141/4/3
f 143/3/3 133/3/3 132/3/3
f 143/2/3 132/2/3 142/2/3
f 144/2/3 134/2/3 133/2/3
f 144/3/3 133/3/3 143/3/3
f 145/4/3 135/4/3 134/4/3
f 145/2/3 134/2/3 144/2/3
f 146/6/3 137/6/3 136/6/3
f 146/4/3 135/4/3 145/4/3
f 146/6/3 136/6/3 135/6/3
f 147/4/3 122/4/3 137/4/3
f 147/6/3 137/6/3 146/6/3
f 148/4/3 122/4/3 147/4/3
f 149/7/3 123/7/3 122/7/3
f 149/4/3 122/4/3 148/4/3
f 149/7/3 124/7/3 123/7/3
f 150/7/3 124/7/3 149/7/3
f 151/7/3 124/7/3 150/7/3
f 152/8/3 139/8/3 138/8/3
f 153/7/3 140/7/3 139/7/3
f 153/8/3 139/8/3 152/8/3
f 154/5/3 141/5/3 140/5/3
f 154/7/3 140/7/3 153/7/3
f 155/4/3 142/4/3 141/4/3
f 155/5/3 141/5/3 154/5/3
f 155/4/3 143/4/3 142/4/3
f 156/2/3 144/2/3 143/2/3
f 156/4/3 143/4/3 155/4/3
f 157/4/3 146/4/3 145/4/3
f 157/2/3 144/2/3 156/2/3
f 157/4/3 148/4/3 147/4/3
f 157/4/3 145/4/3 144/4/3
f 157/4/3 147/4/3 146/4/3
f 158/5/3 149/5/3 148/5/3
f 158/4/3 148/4/3 157/4/3
f 159/7/3 150/7/3 149/7/3
f 159/5/3 149/5/3 158/5/3
f 160/8/3 151/8/3 150/8/3
f 160/7/3 150/7/3 159/7/3
f 161/8/3 151/8/3 160/8/3
f 162/7/3 155/7/3 154/7/3
f 162/7/3 154/7/3 153/7/3
f 163/7/3 155/7/3 162/7/3
f 164/4/3 156/4/3 155/4/3
f 164/7/3 155/7/3 163/7/3
f 164/4/3 158/4/3 157/4/3
f 164/4/3 157/4/3 156/4/3
f 165/4/3 158/4/3 164/4/3
f 166/4/3 158/4/3 165/4/3
f 167/7/3 159/7/3 158/7/3
f 167/4/3 158/4/3 166/4/3
f 167/7/3 160/7/3 159/7/3
f 168/7/3 160/7/3 167/7/3
f 169/7/3 160/7/3 168/7/3
f 170/8/3 163/8/3 162/8/3
f 171/7/3 164/7/3 163/7/3
f 171/8/3 163/8/3 170/8/3
f 172/5/3 165/5/3 164/5/3
f 172/7/3 164/7/3 171/7/3
f 173/4/3 166/4/3 165/4/3
f 173/5/3 165/5/3 172/5/3
f 174/4/3 166/4/3 173/4/3
f 175/4/3 166/4/3 174/4/3
f 176/5/3 167/5/3 166/5/3
f 176/4/3 166/4/3 175/4/3
f 177/7/3 168/7/3 167/7/3
f 177/5/3 167/5/3 176/5/3
f 178/8/3 169/8/3 168/8/3
f 178/7/3 168/7/3 177/7/3
f 179/8/3 169/8/3 178/8/3
f 180/7/3 172/7/3 171/7/3
f 180/7/3 173/7/3 172/7/3
f 181/7/3 173/7/3 180/7/3
f 182/5/3 174/5/3 173/5/3
f 182/7/3 173/7/3 181/7/3
f 183/4/3 175/4/3 174/4/3
f 183/5/3 174/5/3 182/5/3
f 184/5/3 176/5/3 175/5/3
f 184/4/3 175/4/3 183/4/3
f 185/7/3 178/7/3 177/7/3
f 185/5/3 176/5/3 184/5/3
f 185/7/3 177/7/3 176/7/3
f 186/7/3 178/7/3 185/7/3
f 187/7/3 178/7/3 186/7/3
f 188/8/3 181/8/3 180/8/3
f 189/7/3 182/7/3 181/7/3
f 189/8/3 181/8/3 188/8/3
f 189/7/3 183/7/3 182/7/3
f 190/7/3 183/7/3 189/7/3
f 191/7/3 183/7/3 190/7/3
f 192/5/3 184/5/3 183/5/3
f 192/7/3 183/7/3 191/7/3
f 193/7/3 185/7/3 184/7/3
f 193/5/3 184/5/3 192/5/3
f 193/7/3 186/7/3 185/7/3
f 194/7/3 186/7/3 193/7/3
f 195/7/3 186/7/3 194/7/3
f 196/8/3 187/8/3 186/8/3
f 196/7/3 186/7/3 195/7/3
f 197/8/3 187/8/3 196/8/3
f 198/8/3 191/8/3 190/8/3
f 199/7/3 192/7/3 191/7/3
f 199/8/3 191/8/3 198/8/3
f 199/7/3 194/7/3 193/7/3
f 199/7/3 193/7/3 192/7/3
f 200/7/3 194/7/3 199/7/3
f 201/7/3 194/7/3 200/7/3
f 202/8/3 195/8/3 194/8/3
f 202/7/3 194/7/3 201/7/3
f 203/8/3 195/8/3 202/8/3
f 204/8/3 201/8/3 200/8/3
f 205/8/3 201/8/3 204/8/3
f 206/7/4 207/7/4 209/7/4
f 209/7/4 207/7/4 210/7/4
f 208/7/4 209/7/4 213/7/4
f 213/7/4 209/7/4 214/7/4
f 209/8/4 210/8/4 215/8/4
f 214/7/4 209/7/4 215/7/4
f 210/7/4 211/7/4 216/7/4
f 215/8/4 210/8/4 216/8/4
f 216/7/4 211/7/4 217/7/4
f 217/7/4 211/7/4 218/7/4
f 213/7/4 214/7/4 220/7/4
f 212/7/4 213/7/4 220/7/4
f 220/7/4 214/7/4 221/7/4
f 214/8/4 215/8/4 222/8/4
f 221/7/4 214/7/4 222/7/4
f 215/4/4 216/4/4 223/4/4
f 222/8/4 215/8/4 223/8/4
f 216/8/4 217/8/4 224/8/4
f 223/4/4 216/4/4 224/4/4
f 218/7/4 219/7/4 225/7/4
f 224/8/4 217/8/4 225/8/4
f 217/7/4 218/7/4 225/7/4
f 225/7/4 219/7/4 226/7/4
f 226/7/4 219/7/4 227/7/4
f 212/7/4 220/7/4 229/7/4
f 220/8/4 221/8/4 230/8/4
f 229/7/4 220/7/4 230/7/4
f 223/4/4 224/4/4 231/4/4
f 230/8/4 221/8/4 231/8/4
f 221/4/4 222/4/4 231/4/4
f 222/4/4 223/4/4 231/4/4
f 224/4/4 225/4/4 231/4/4
f 225/4/4 226/4/4 231/4/4
f 226/8/4 227/8/4 232/8/4
f 231/4/4 226/4/4 232/4/4
f 227/7/4 219/7/4 233/7/4
f 232/8/4 227/8/4 233/8/4
f 233/7/4 219/7/4 234/7/4
f 228/7/4 229/7/4 236/7/4
f 229/7/4 230/7/4 236/7/4
f 231/4/4 232/4/4 237/4/4
f 236/7/4 230/7/4 237/7/4
f 230/4/4 231/4/4 237/4/4
f 232/4/4 233/4/4 237/4/4
f 234/7/4 235/7/4 238/7/4
f 237/4/4 233/4/4 238/4/4
f 233/7/4 234/7/4 238/7/4
f 238/7/4 235/7/4 239/7/4
f 228/7/4 236/7/4 241/7/4
f 236/8/4 237/8/4 242/8/4
f 241/7/4 236/7/4 242/7/4
f 237/4/4 238/4/4 243/4/4
f 242/8/4 237/8/4 243/8/4
f 243/4/4 238/4/4 244/4/4
f 244/4/4 238/4/4 245/4/4
f 238/8/4 239/8/4 246/8/4
f 245/4/4 238/4/4 246/4/4
f 239/7/4 235/7/4 247/7/4
f 246/8/4 239/8/4 247/8/4
f 247/7/4 235/7/4 248/7/4
f 242/4/4 243/4/4 250/4/4
f 243/4/4 244/4/4 250/4/4
f 244/3/4 245/3/4 251/3/4
f 250/4/4 244/4/4 251/4/4
f 245/4/4 246/4/4 252/4/4
f 251/3/4 245/3/4 252/3/4
f 246/4/4 247/4/4 252/4/4
f 252/4/4 247/4/4 253/4/4
f 250/3/4 251/3/4 254/3/4
f 253/4/4 247/4/4 254/4/4
f 252/3/4 253/3/4 254/3/4
f 251/3/4 252/3/4 254/3/4
f 254/4/4 247/4/4 255/4/4
f 242/4/4 250/4/4 256/4/4
f 250/3/4 254/3/4 256/3/4
f 256/3/4 254/3/4 257/3/4
f 257/3/4 254/3/4 258/3/4
f 254/1/4 255/1/4 259/1/4
f 258/3/4 254/3/4 259/3/4
f 259/1/4 255/1/4 260/1/4
f 255/4/4 247/4/4 261/4/4
f 260/1/4 255/1/4 261/1/4
f 261/4/4 247/4/4 262/4/4
f 240/7/4 241/7/4 263/7/4
f 241/7/4 242/7/4 263/7/4
f 263/7/4 242/7/4 264/7/4
f 242/4/4 256/4/4 265/4/4
f 264/7/4 242/7/4 265/7/4
f 265/4/4 256/4/4 266/4/4
f 256/2/4 257/2/4 267/2/4
f 266/4/4 256/4/4 267/4/4
f 257/3/4 258/3/4 268/3/4
f 267/2/4 257/2/4 268/2/4
f 258/2/4 259/2/4 269/2/4
f 268/3/4 258/3/4 269/3/4
f 259/4/4 260/4/4 270/4/4
f 269/2/4 259/2/4 270/2/4
f 261/1/4 262/1/4 271/1/4
f 270/4/4 260/4/4 271/4/4
f 260/1/4 261/1/4 271/1/4
f 262/4/4 247/4/4 272/4/4
f 271/1/4 262/1/4 272/1/4
f 272/4/4 247/4/4 273/4/4
f 247/7/4 248/7/4 274/7/4
f 273/4/4 247/4/4 274/4/4
f 248/7/4 249/7/4 274/7/4
f 274/7/4 249/7/4 275/7/4
f 275/7/4 249/7/4 276/7/4
f 263/8/4 264/8/4 277/8/4
f 264/7/4 265/7/4 278/7/4
f 277/8/4 264/8/4 278/8/4
f 265/5/4 266/5/4 279/5/4
f 278/7/4 265/7/4 279/7/4
f 266/4/4 267/4/4 280/4/4
f 279/5/4 266/5/4 280/5/4
f 267/4/4 268/4/4 280/4/4
f 268/2/4 269/2/4 281/2/4
f 280/4/4 268/4/4 281/4/4
f 270/4/4 271/4/4 282/4/4
f 281/2/4 269/2/4 282/2/4
f 272/4/4 273/4/4 282/4/4
f 269/4/4 270/4/4 282/4/4
f 271/4/4 272/4/4 282/4/4
f 273/5/4 274/5/4 283/5/4
f 282/4/4 273/4/4 283/4/4
f 274/7/4 275/7/4 284/7/4
f 283/5/4 274/5/4 284/5/4
f 275/8/4 276/8/4 285/8/4
f 284/7/4 275/7/4 285/7/4
f 285/8/4 276/8/4 286/8/4
f 279/7/4 280/7/4 287/7/4
f 278/7/4 279/7/4 287/7/4
f 287/7/4 280/7/4 288/7/4
f 280/4/4 281/4/4 289/4/4
f 288/7/4 280/7/4 289/7/4
f 282/4/4 283/4/4 289/4/4
f 281/4/4 282/4/4 289/4/4
f 289/4/4 283/4/4 290/4/4
f 290/4/4 283/4/4 291/4/4
f 283/7/4 284/7/4 292/7/4
f 291/4/4 283/4/4 292/4/4
f 284/7/4 285/7/4 292/7/4
f 292/7/4 285/7/4 293/7/4
f 293/7/4 285/7/4 294/7/4
f 287/8/4 288/8/4 295/8/4
f 288/7/4 289/7/4 296/7/4
f 295/8/4 288/8/4 296/8/4
f 289/5/4 290/5/4 297/5/4
f 296/7/4 289/7/4 297/7/4
f 290/4/4 291/4/4 298/4/4
f 297/5/4 290/5/4 298/5/4
f 298/4/4 291/4/4 299/4/4
f 299/4/4 291/4/4 300/4/4
f 291/5/4 292/5/4 301/5/4
f 300/4/4 291/4/4 301/4/4
f 292/7/4 293/7/4 302/7/4
f 301/5/4 292/5/4 302/5/4
f 293/8/4 294/8/4 303/8/4
f 302/7/4 293/7/4 303/7/4
f 303/8/4 294/8/4 304/8/4
f 296/7/4 297/7/4 305/7/4
f 297/7/4 298/7/4 305/7/4
f 305/7/4 298/7/4 306/7/4
f 298/5/4 299/5/4 307/5/4
f 306/7/4 298/7/4 307/7/4
f 299/4/4 300/4/4 308/4/4
f 307/5/4 299/5/4 308/5/4
f 300/5/4 301/5/4 309/5/4
f 308/4/4 300/4/4 309/4/4
f 302/7/4 303/7/4 310/7/4
f 309/5/4 301/5/4 310/5/4
f 301/7/4 302/7/4 310/7/4
f 310/7/4 303/7/4 311/7/4
f 311/7/4 303/7/4 312/7/4
f 305/8/4 306/8/4 313/8/4
f 306/7/4 307/7/4 314/7/4
f 313/8/4 306/8/4 314/8/4
f 307/7/4 308/7/4 314/7/4
f 314/7/4 308/7/4 315/7/4
f 315/7/4 308/7/4 316/7/4
f 308/5/4 309/5/4 317/5/4
f 316/7/4 308/7/4 317/7/4
f 309/7/4 310/7/4 318/7/4
f 317/5/4 309/5/4 318/5/4
f 310/7/4 311/7/4 318/7/4
f 318/7/4 311/7/4 319/7/4
f 319/7/4 311/7/4 320/7/4
f 311/8/4 312/8/4 321/8/4
f 320/7/4 311/7/4 321/7/4
f 321/8/4 312/8/4 322/8/4
f 315/8/4 316/8/4 323/8/4
f 316/7/4 317/7/4 324/7/4
f 323/8/4 316/8/4 324/8/4
f 318/7/4 319/7/4 324/7/4
f 317/7/4 318/7/4 324/7/4
f 324/7/4 319/7/4 325/7/4
f 325/7/4 319/7/4 326/7/4
f 319/8/4 320/8/4 327/8/4
f 326/7/4 319/7/4 327/7/4
f 327/8/4 320/8/4 328/8/4
f 325/8/4 326/8/4 329/8/4
f 329/8/4 326/8/4 330/8/4
f 334/7/5 332/7/5 331/7/5
f 335/8/5 333/8/5 332/8/5
f 335/7/5 332/7/5 334/7/5
f 336/8/5 333/8/5 335/8/5
f 342/7/5 338/7/5 337/7/5
f 343/7/5 338/7/5 342/7/5
f 344/7/5 340/7/5 339/7/5
f 345/8/5 341/8/5 340/8/5
f 345/7/5 340/7/5 344/7/5
f 346/8/5 341/8/5 345/8/5
f 352/7/5 348/7/5 347/7/5
f 353/7/5 348/7/5 352/7/5
f 354/7/5 350/7/5 349/7/5
f 355/8/5 351/8/5 350/8/5
f 355/7/5 350/7/5 354/7/5
f 356/8/5 351/8/5 355/8/5
f 361/7/5 358/7/5 357/7/5
f 362/7/5 358/7/5 361/7/5
f 363/8/5 360/8/5 359/8/5
f 364/8/5 360/8/5 363/8/5
f 369/7/5 366/7/5 365/7/5
f 370/7/5 366/7/5 369/7/5
f 371/8/5 368/8/5 367/8/5
f 372/8/5 368/8/5 371/8/5
f 373/7/6 374/7/6 377/7/6
f 377/7/6 374/7/6 378/7/6
f 375/8/6 376/8/6 379/8/6
f 379/8/6 376/8/6 380/8/6
f 381/7/6 382/7/6 385/7/6
f 385/7/6 382/7/6 386/7/6
f 383/8/6 384/8/6 387/8/6
f 387/8/6 384/8/6 388/8/6
f 389/7/6 390/7/6 394/7/6
f 394/7/6 390/7/6 395/7/6
f 391/7/6 392/7/6 396/7/6
f 392/8/6 393/8/6 397/8/6
f 396/7/6 392/7/6 397/7/6
f 397/8/6 393/8/6 398/8/6
f 399/7/6 400/7/6 404/7/6
f 404/7/6 400/7/6 405/7/6
f 401/7/6 402/7/6 406/7/6
f 402/8/6 403/8/6 407/8/6
f 406/7/6 402/7/6 407/7/6
f 407/8/6 403/8/6 408/8/6
f 409/7/6 410/7/6 412/7/6
f 410/8/6 411/8/6 413/8/6
f 412/7/6 410/7/6 413/7/6
f 413/8/6 411/8/6 414/8/6
